IKResults
version=1
nRows=17
nColumns=40
inDegrees=yes

Units are S.I. units (second, meters, Newtons, ...)
Angles are in degrees.

endheader
time	pelvis_tilt	pelvis_list	pelvis_rotation	pelvis_tx	pelvis_ty	pelvis_tz	hip_flexion_r	hip_adduction_r	hip_rotation_r	knee_angle_r	knee_angle_r_beta	ankle_angle_r	subtalar_angle_r	mtp_angle_r	hip_flexion_l	hip_adduction_l	hip_rotation_l	knee_angle_l	knee_angle_l_beta	ankle_angle_l	subtalar_angle_l	mtp_angle_l	lumbar_extension	lumbar_bending	lumbar_rotation	arm_flex_r	arm_add_r	arm_rot_r	elbow_flex_r	pro_sup_r	wrist_flex_r	wrist_dev_r	arm_flex_l	arm_add_l	arm_rot_l	elbow_flex_l	pro_sup_l	wrist_flex_l	wrist_dev_l
      0.78000000	     15.98524794	     -6.82725656	      5.92418083	      0.00447301	      0.93091235	     -1.44441826	      4.05381507	      8.06376881	     -8.35784897	    -28.11728862	     -0.49073926	      3.57406695	    -13.61573187	      2.15793286	    -15.92331185	      8.74777364	     -0.52022163	    -60.31910898	     -1.05276705	     -6.59631183	     17.76215902	      9.90586536	    -20.09055478	      9.57619992	     -5.48493051	    -13.23451174	    -12.16561459	     -2.79753389	     18.93657965	     89.95437384	      0.00000000	      0.00000000	      7.02524819	      7.64632586	     11.84161901	     48.47680207	     89.95437384	      0.00000000	      0.00000000
      0.79000000	     16.27710030	     -6.33560136	      6.13099444	      0.01865151	      0.93375822	     -1.44366762	      2.42737673	      7.82797641	     -8.25091021	    -27.72365012	     -0.48386898	      4.52378258	    -13.60509546	      2.14280536	    -14.45380301	      8.11346172	     -1.05797819	    -61.62234628	     -1.07551284	     -5.12219589	     17.68686212	      9.48676415	    -20.40687331	      9.04516796	     -5.47904023	    -12.49521414	    -12.09827255	     -2.50663530	     19.40918085	     89.95437384	      0.00000000	      0.00000000	      6.76129862	      7.37369340	     11.86941379	     46.58593745	     89.95437384	      0.00000000	      0.00000000
      0.80000000	     16.59837046	     -5.79681378	      6.42663744	      0.03276451	      0.93672726	     -1.44313270	      0.64652817	      7.54241132	     -8.23950754	    -27.10769417	     -0.47311852	      5.32090815	    -13.48608757	      2.16429424	    -13.01679318	      7.42176607	     -1.62918194	    -62.53838231	     -1.09150068	     -3.64949541	     17.55716175	      9.06588086	    -20.75287344	      8.48781318	     -5.60048090	    -11.80870715	    -12.05162146	     -2.19644941	     20.07390521	     89.95437384	      0.00000000	      0.00000000	      6.45009035	      7.12498203	     11.97795295	     44.65603046	     89.95437384	      0.00000000	      0.00000000
      0.81000000	     17.33642346	     -5.22660916	      6.80878055	      0.04727551	      0.94044739	     -1.44284321	     -1.85465220	      7.28447379	     -8.40651795	    -25.99134657	     -0.45363457	      5.81712077	    -13.19878276	      2.43019553	    -12.23947377	      6.73071438	     -2.18019591	    -62.83552871	     -1.09668686	     -2.15724320	     17.46351400	      8.36081605	    -21.51481075	      7.97582628	     -5.79891204	    -11.20578969	    -12.09917774	     -1.67289988	     20.99096628	     89.95437384	      0.00000000	      0.00000000	      6.01864630	      6.89835349	     12.18112585	     42.79734245	     89.95437384	      0.00000000	      0.00000000
      0.82000000	     17.39845686	     -4.65046118	      6.85743239	      0.06123012	      0.94304241	     -1.44210646	     -3.36034462	      6.95632587	     -8.11548396	    -25.31841174	     -0.44188965	      6.61296464	    -13.15543330	      2.40307884	    -10.64601622	      5.95307739	     -2.35243041	    -63.07261758	     -1.10082484	     -0.64654092	     17.46169745	      8.00388232	    -21.62289275	      7.29912913	     -5.75725637	    -10.50236670	    -12.07721796	     -1.55892423	     21.72075088	     89.95437384	      0.00000000	      0.00000000	      5.65639288	      6.69965109	     12.31256800	     40.64905301	     89.95437384	      0.00000000	      0.00000000
      0.83000000	     17.43048145	     -4.06802600	      6.83965507	      0.07516197	      0.94550798	     -1.44137027	     -4.86436176	      6.60651511	     -7.79837996	    -24.54949449	     -0.42846951	      7.18479191	    -13.10023680	      2.40787722	     -9.12015289	      5.16198785	     -2.41741873	    -62.95439412	     -1.09876146	      0.97305425	     17.46846076	      7.66926398	    -21.71401243	      6.60319567	     -5.67069859	     -9.89300452	    -12.11089221	     -1.42104945	     22.70408767	     89.95437384	      0.00000000	      0.00000000	      5.26184302	      6.50216759	     12.53904831	     38.46918986	     89.95437384	      0.00000000	      0.00000000
      0.84000000	     17.39921143	     -3.53091059	      6.73160812	      0.08906822	      0.94775650	     -1.44048298	     -6.30129534	      6.25538130	     -7.58061425	    -23.74253406	     -0.41438539	      7.77034092	    -13.14989534	      2.41980301	     -7.59329495	      4.42626851	     -2.34781718	    -62.52505330	     -1.09126805	      2.53708668	     17.55384392	      7.40425696	    -21.74754168	      5.90896213	     -5.47271731	     -9.35311061	    -12.18823268	     -1.33211412	     23.88983898	     89.95437384	      0.00000000	      0.00000000	      4.86423905	      6.34139498	     12.77554714	     36.24243807	     89.95437384	      0.00000000	      0.00000000
      0.85000000	     17.38121639	     -2.98663316	      6.49885483	      0.10289779	      0.94980070	     -1.43951494	     -7.75729327	      5.87165445	     -7.18735478	    -22.90050103	     -0.39968914	      8.05672884	    -13.05851659	      2.46994981	     -6.18489318	      3.71973878	     -2.08192361	    -61.78244771	     -1.07830713	      3.96333048	     17.69348606	      7.20626686	    -21.81446197	      5.19310037	     -5.19705243	     -8.93651937	    -12.31943333	     -1.23800167	     25.38114119	     89.95437384	      0.00000000	      0.00000000	      4.47751788	      6.19768762	     13.09266942	     33.94759194	     89.95437384	      0.00000000	      0.00000000
      0.86000000	     17.27347705	     -2.48488324	      6.24616656	      0.11675809	      0.95140599	     -1.43837095	     -9.12390577	      5.49645950	     -7.00309743	    -22.00469960	     -0.38405446	      8.50427078	    -12.94228970	      2.48739825	     -4.68874748	      3.13702592	     -1.63363039	    -60.83253781	     -1.06172808	      5.32995301	     17.77004710	      7.05650287	    -21.77453972	      4.47514664	     -4.86878304	     -8.54440334	    -12.44157937	     -1.17803869	     26.89597177	     89.95437384	      0.00000000	      0.00000000	      4.03747382	      6.10316952	     13.37740690	     31.74684830	     89.95437384	      0.00000000	      0.00000000
      0.87000000	     17.52451024	     -1.96555730	      5.75190150	      0.13072897	      0.95337412	     -1.43707599	    -10.95085729	      5.06407835	     -6.58673400	    -21.00926773	     -0.36668090	      8.65557480	    -12.82053973	      2.61812607	     -3.82360057	      2.64905369	     -0.77090956	    -59.31808170	     -1.03529583	      6.50168314	     17.82290888	      7.10645944	    -22.16238884	      3.72425040	     -4.24351734	     -8.33013780	    -12.66274683	     -1.26796178	     28.82255018	     89.95437384	      0.00000000	      0.00000000	      3.67176036	      5.96866039	     13.91293952	     29.51634510	     89.95437384	      0.00000000	      0.00000000
      0.88000000	     17.26140852	     -1.54774801	      5.52727255	      0.14434845	      0.95407298	     -1.43592300	    -12.03003125	      4.72433761	     -6.53322186	    -20.23791510	     -0.35321825	      9.08789328	    -12.61016780	      2.59879825	     -2.19958542	      2.19312742	     -0.33784339	    -57.98308015	     -1.01199566	      7.33688651	     17.91665973	      7.11228844	    -21.96571241	      3.08389278	     -3.94163568	     -7.94516287	    -12.80305867	     -1.33310492	     30.43230302	     89.95437384	      0.00000000	      0.00000000	      3.18456048	      5.96022233	     14.15086812	     27.38163521	     89.95437384	      0.00000000	      0.00000000
      0.89000000	     17.37459614	     -1.09637630	      4.97457500	      0.15824390	      0.95499370	     -1.43440166	    -13.49132567	      4.27994881	     -6.40790369	    -19.53031608	     -0.34086832	      9.43561544	    -12.46744658	      2.61115052	     -1.26453865	      1.84989515	      0.64279600	    -56.14073607	     -0.97984069	      7.98019522	     18.05473195	      7.43704536	    -22.19903399	      2.34718538	     -3.29940625	     -7.70737314	    -13.03183702	     -1.33401374	     32.38050924	     89.95437384	      0.00000000	      0.00000000	      2.69461304	      5.91210945	     14.79643917	     25.38763570	     89.95437384	      0.00000000	      0.00000000
      0.90000000	     17.01010513	     -0.81299347	      4.75669434	      0.17171993	      0.95468788	     -1.43315548	    -14.30333252	      4.05693685	     -6.49514366	    -18.96875892	     -0.33106730	      9.91750311	    -12.36447597	      2.54670930	      0.42694113	      1.67281030	      1.25220713	    -54.53034890	     -0.95173413	      8.71965306	     18.15415549	      7.52155904	    -21.90517018	      1.83411335	     -2.99641844	     -7.34222350	    -13.23251011	     -1.25034006	     34.09081466	     89.95437384	      0.00000000	      0.00000000	      2.00729345	      6.03468136	     14.95010898	     23.68229844	     89.95437384	      0.00000000	      0.00000000
      0.91000000	     16.92298401	     -0.46424951	      4.26828839	      0.18533857	      0.95452817	     -1.43181655	    -15.38942920	      3.71035856	     -6.12335229	    -18.50255246	     -0.32293046	     10.42881232	    -12.27971208	      2.45650709	      1.52790754	      1.43133632	      2.08130749	    -52.43470763	     -0.91515829	      9.57242915	     18.26417270	      7.77594061	    -21.92812803	      1.22682286	     -2.37827650	     -7.17954372	    -13.57843209	     -1.16332129	     36.24998285	     89.95437384	      0.00000000	      0.00000000	      1.55534544	      6.04495934	     15.42798160	     21.70257404	     89.95437384	      0.00000000	      0.00000000
      0.92000000	     16.99460344	     -0.13144207	      3.69792576	      0.19891212	      0.95433647	     -1.43033059	    -16.64876773	      3.35525917	     -5.71205386	    -18.01203200	     -0.31436926	     10.79959325	    -12.23385609	      2.36295712	      2.32914882	      1.36708495	      3.34840876	    -49.99994930	     -0.87266374	     10.11755360	     18.34951558	      8.28115875	    -22.15556720	      0.60399150	     -1.71912064	     -6.91111603	    -13.89115062	     -1.11341022	     38.27990295	     89.95437384	      0.00000000	      0.00000000	      1.08193325	      6.09875696	     16.11475950	     19.89656646	     89.95437384	      0.00000000	      0.00000000
      0.93000000	     17.27326807	      0.25825640	      3.06237876	      0.21294059	      0.95416096	     -1.42902702	    -18.22966084	      2.88897679	     -5.30655758	    -17.38048162	     -0.30334663	     11.01363893	    -12.07924348	      2.21786158	      2.70739946	      1.22599010	      4.67624280	    -47.28672733	     -0.82530908	     10.68868876	     18.36780381	      9.38320761	    -22.51719050	     -0.06111993	     -1.21109325	     -6.51389101	    -14.16059845	     -1.12860994	     40.10493554	     89.95437384	      0.00000000	      0.00000000	      0.30994051	      6.14587874	     16.98751866	     18.50720344	     89.95437384	      0.00000000	      0.00000000
      0.94000000	     16.94141782	      0.34851301	      2.82892447	      0.22626888	      0.95255502	     -1.42799198	    -18.92761353	      2.82151890	     -5.10805887	    -17.09440465	     -0.29835364	     11.58492936	    -12.02130253	      2.08942094	      3.99789692	      1.41289522	      5.71168763	    -44.85509683	     -0.78286913	     11.53496711	     18.37136092	      9.67539913	    -22.28402521	     -0.33419142	     -0.91178764	     -6.21386790	    -14.52578851	     -0.93845398	     42.13349691	     89.95437384	      0.00000000	      0.00000000	     -0.37407999	      6.29869048	     17.22337066	     17.04526903	     89.95437384	      0.00000000	      0.00000000
